<svg xmlns="http://www.w3.org/2000/svg" width="256" height="256" viewBox="0 0 100 100"><rect width="100" height="100" rx="20" fill="#7d6ee7"></rect><path fill="#fff" d="M67.10 36.77Q67.10 42.89 64.00 47.21Q60.89 51.53 55.49 53.06L55.49 53.06L71.15 79.88L59.63 79.88L43.61 51.44Q43.07 50.45 43.07 49.64L43.07 49.64Q49.82 49.64 53.06 46.63Q56.30 43.61 56.30 37.13L56.30 37.13Q56.30 31.73 53.56 29.07Q50.81 26.42 45.14 26.42L45.14 26.42Q42.35 26.42 39.38 26.87L39.38 26.87L39.38 79.88L28.85 79.88L28.85 20.84Q39.47 20.12 45.77 20.12L45.77 20.12Q67.10 20.12 67.10 36.77L67.10 36.77Z"></path></svg>