<svg xmlns="http://www.w3.org/2000/svg" version="1.1" xmlns:xlink="http://www.w3.org/1999/xlink" xmlns:svgjs="http://svgjs.dev/svgjs" width="2000" height="424" viewBox="0 0 2000 424"><g transform="matrix(1,0,0,1,-1.2121212121212466,1.2474724146678113)"><svg viewBox="0 0 396 84" data-background-color="#ffffff" preserveAspectRatio="xMidYMid meet" height="424" width="2000" xmlns="http://www.w3.org/2000/svg" xmlns:xlink="http://www.w3.org/1999/xlink"><g id="tight-bounds" transform="matrix(1,0,0,1,0.2400000000000091,-0.24714076139645158)"><svg viewBox="0 0 395.52 84.49428152279293" height="84.49428152279293" width="395.52"><g><svg viewBox="0 0 519.9106849032478 111.06765720298115" height="84.49428152279293" width="395.52"><g transform="matrix(1,0,0,1,124.39068490324779,34.32151821131083)"><svg viewBox="0 0 395.52 42.4246207803595" height="42.4246207803595" width="395.52"><g id="textblocktransform"><svg viewBox="0 0 395.52 42.4246207803595" height="42.4246207803595" width="395.52" id="textblock"><g><svg viewBox="0 0 395.52 42.4246207803595" height="42.4246207803595" width="395.52"><g transform="matrix(1,0,0,1,0,0)"><svg width="395.52" viewBox="1.9 -36.25 342.12 36.7" height="42.4246207803595" data-palette-color="url(#29d07f88-85c5-47aa-8717-6bdbe1f70f9d)"></svg></g></svg></g></svg></g></svg></g><g><svg viewBox="0 0 114.37525012790364 111.06765720298115" height="111.06765720298115" width="114.37525012790364"><g><svg xmlns="http://www.w3.org/2000/svg" xmlns:xlink="http://www.w3.org/1999/xlink" version="1.1" x="0" y="0" viewBox="6.343650721689464 3.459300458083863 89.59874006063401 87.00765362912796" enable-background="new 0 0 100 100" xml:space="preserve" height="111.06765720298115" width="114.37525012790364" class="icon-icon-0" data-fill-palette-color="accent" id="icon-0"><g fill="#ff4136" data-fill-palette-color="accent"><path d="M90.369 31.38C83.708 22.012 69.552 23.886 69.552 23.886 74.756 31.172 71.426 36.168 71.426 36.168 67.054 36.585 61.017 32.004 61.017 32.004 62.058 37.209 57.062 40.956 57.062 40.956 57.062 37.833 49.775 33.462 49.775 33.462 48.109 38.042 38.741 40.124 38.741 40.124 37.908 34.919 39.366 32.005 39.366 32.005 35.827 35.128 28.124 34.504 28.124 34.504 28.957 26.385 33.537 23.678 33.537 23.678-8.515 21.596-1.645 94.459 53.105 90.295 107.856 86.132 97.031 40.749 90.369 31.38" fill="#ff4136" data-fill-palette-color="accent"></path><path d="M34.37 29.507C39.158 30.826 44.085 26.87 44.085 26.87 41.864 29.507 42.906 34.017 42.906 34.017 46.722 33.809 48.457 28.604 48.457 28.604 52.274 28.674 56.715 34.78 56.715 34.78 59.769 31.935 59.005 28.049 59.005 28.049 63.585 31.588 68.512 30.686 68.512 30.686 68.304 26.383 63.864 24.094 63.864 24.094 69.276 20.347 67.403 17.294 67.403 17.294 64.627 21.596 58.728 21.943 58.728 21.943 61.711 18.82 59.838 12.436 59.838 12.436 58.727 15.003 54.009 22.428 53.94 19.722A4 4 0 0 1 53.957 19.294C54.251 15.957 58.103 5.219 58.103 5.219 57.548 3.415 55.328 3.137 54.148 3.761S50.33 19.445 50.33 19.445C46.721 18.474 46.93 11.325 46.93 11.325 44.016 12.991 44.085 20.763 44.085 20.763 37.354 20.555 34.925 15.766 34.925 15.766 34.717 23.052 40.962 23.885 40.962 23.885 36.937 24.025 34.37 29.507 34.37 29.507" fill="#ff4136" data-fill-palette-color="accent"></path></g></svg></g></svg></g></svg></g><defs></defs><mask id="1c143d7c-00e1-4668-92f3-fa03656c927a"><g id="SvgjsG3398"><svg viewBox="0 0 395.52 84.49428152279293" height="84.49428152279293" width="395.52"><g><svg viewBox="0 0 519.9106849032478 111.06765720298115" height="84.49428152279293" width="395.52"><g transform="matrix(1,0,0,1,124.39068490324779,34.32151821131083)"><svg viewBox="0 0 395.52 42.4246207803595" height="42.4246207803595" width="395.52"><g id="SvgjsG3397"><svg viewBox="0 0 395.52 42.4246207803595" height="42.4246207803595" width="395.52" id="SvgjsSvg3396"><g><svg viewBox="0 0 395.52 42.4246207803595" height="42.4246207803595" width="395.52"><g transform="matrix(1,0,0,1,0,0)"><svg width="395.52" viewBox="1.9 -36.25 342.12 36.7" height="42.4246207803595" data-palette-color="url(#29d07f88-85c5-47aa-8717-6bdbe1f70f9d)"><path d="M12.65 0.2L12.65 0.2Q11.1 0.2 9.93-0.6 8.75-1.4 8.8-3L8.8-3Q8.9-5.8 9.22-9.2 9.55-12.6 10-16.13 10.45-19.65 10.93-22.9 11.4-26.15 11.8-28.7L11.8-28.7Q10.9-28.8 10.05-28.85 9.2-28.9 8.5-28.9L8.5-28.9Q6.4-28.9 4.73-28.5 3.05-28.1 1.9-27.1L1.9-27.1Q1.9-30.25 2.43-32.23 2.95-34.2 4.38-35.1 5.8-36 8.55-36L8.55-36Q10.55-36 13.03-35.68 15.5-35.35 18.05-35 20.6-34.65 22.8-34.65L22.8-34.65Q24.6-34.65 26.03-35 27.45-35.35 28.2-36.25L28.2-36.25Q29.3-35.9 29.9-34.73 30.5-33.55 30.5-32.15L30.5-32.15Q30.5-30.9 29.95-29.73 29.4-28.55 28.2-27.78 27-27 24.95-27L24.95-27Q24-27 22.63-27.18 21.25-27.35 19.7-27.55L19.7-27.55Q19.15-24.55 18.57-20.38 18-16.2 17.63-11.4 17.25-6.6 17.15-1.65L17.15-1.65Q16.25-0.7 15.03-0.25 13.8 0.2 12.65 0.2ZM41.95 0.35L41.95 0.35Q38.2 0.35 35.75-1.15 33.3-2.65 32.12-5.13 30.95-7.6 30.95-10.4L30.95-10.4Q30.95-13.05 31.92-15.7 32.9-18.35 34.77-20.53 36.65-22.7 39.35-24.03 42.05-25.35 45.55-25.35L45.55-25.35Q49.3-25.35 51.72-23.83 54.15-22.3 55.32-19.8 56.5-17.3 56.5-14.45L56.5-14.45Q56.5-11.85 55.55-9.22 54.6-6.6 52.72-4.42 50.85-2.25 48.15-0.95 45.45 0.35 41.95 0.35ZM43.3-3.9L43.3-3.9Q44.65-3.9 45.55-5.3 46.45-6.7 46.9-8.88 47.35-11.05 47.35-13.3L47.35-13.3Q47.35-15.3 46.97-17.07 46.6-18.85 45.85-19.98 45.1-21.1 43.9-21.1L43.9-21.1Q42.6-21.1 41.67-19.7 40.75-18.3 40.3-16.15 39.85-14 39.85-11.7L39.85-11.7Q39.85-9.7 40.22-7.93 40.6-6.15 41.35-5.03 42.1-3.9 43.3-3.9ZM64.8 0.2L64.8 0.2Q63 0.2 61.57-1.28 60.15-2.75 60.15-5.35L60.15-5.35Q60.15-6.65 60.5-8.33 60.85-10 61.27-11.75 61.7-13.5 62.05-15.05 62.4-16.6 62.4-17.65L62.4-17.65Q62.4-18.5 62-19.03 61.6-19.55 60.95-19.55L60.95-19.55Q60.1-19.55 59.1-18.55L59.1-18.55 58.8-18.75Q58.75-19.55 59.15-20.65 59.55-21.75 60.45-22.78 61.35-23.8 62.8-24.5 64.25-25.2 66.25-25.2L66.25-25.2Q68.5-25.2 69.62-23.63 70.75-22.05 70.75-19.85L70.75-19.85Q70.75-19.6 70.75-19.33 70.75-19.05 70.7-18.8L70.7-18.8Q71.65-20.35 72.92-21.8 74.2-23.25 75.82-24.23 77.45-25.2 79.34-25.2L79.34-25.2Q81.8-25.2 82.75-23.63 83.7-22.05 83.7-20.05L83.7-20.05Q83.7-19.65 83.67-19.28 83.65-18.9 83.59-18.55L83.59-18.55Q84.65-20.1 85.92-21.63 87.2-23.15 88.84-24.18 90.5-25.2 92.65-25.2L92.65-25.2Q95.3-25.2 96.27-23.65 97.25-22.1 97.25-20L97.25-20Q97.25-18.15 96.8-15.78 96.34-13.4 95.9-11.1 95.45-8.8 95.45-7.2L95.45-7.2Q95.45-6.25 95.72-5.65 96-5.05 96.65-5.05L96.65-5.05Q97.2-5.05 97.67-5.38 98.15-5.7 98.34-6.15L98.34-6.15 98.75-6Q98.75-4.15 97.7-2.75 96.65-1.35 95.05-0.58 93.45 0.2 91.84 0.2L91.84 0.2Q89.9 0.2 88.42-1.1 86.95-2.4 86.95-5.4L86.95-5.4Q86.95-7.25 87.42-9.4 87.9-11.55 88.37-13.58 88.84-15.6 88.84-16.9L88.84-16.9Q88.84-18.75 87.55-18.75L87.55-18.75Q86.59-18.75 85.67-17.98 84.75-17.2 84.02-15.93 83.3-14.65 82.84-13.25 82.4-11.85 82.4-10.55L82.4-10.55Q82.4-9.35 82.67-7.93 82.95-6.5 82.95-5.2L82.95-5.2Q82.95-2.6 81.5-1.2 80.05 0.2 78.09 0.2L78.09 0.2Q76.3 0.2 74.87-1 73.45-2.2 73.45-4.6L73.45-4.6Q73.45-5.7 73.75-7.28 74.05-8.85 74.42-10.58 74.8-12.3 75.09-13.9 75.4-15.5 75.4-16.7L75.4-16.7Q75.4-17.65 75.12-18.2 74.84-18.75 74.05-18.75L74.05-18.75Q72.9-18.75 71.84-17.6 70.8-16.45 70.05-14.83 69.3-13.2 69.05-11.7L69.05-11.7Q69-11.35 68.97-11.15 68.95-10.95 68.95-10.95L68.95-10.95Q68.95-9.4 69.3-8.13 69.65-6.85 69.65-5.5L69.65-5.5Q69.65-3.05 68.17-1.43 66.7 0.2 64.8 0.2ZM119.34 0.25L119.34 0.25Q117.59 0.25 116.29-0.9 114.99-2.05 114.99-4.65L114.99-4.65Q114.99-4.9 114.99-5.15 114.99-5.4 115.04-5.65L115.04-5.65Q113.54-2.65 111.67-1.23 109.79 0.2 107.89 0.2L107.89 0.2Q106.14 0.2 104.59-1.03 103.04-2.25 102.09-4.65 101.14-7.05 101.14-10.45L101.14-10.45Q101.14-13.95 102.12-16.7 103.09-19.45 104.69-21.35 106.29-23.25 108.19-24.23 110.09-25.2 111.89-25.2L111.89-25.2Q113.89-25.2 115.49-23.98 117.09-22.75 117.69-20.1L117.69-20.1Q117.84-20.95 117.92-21.65 117.99-22.35 117.99-22.6L117.99-22.6Q118.04-23.95 119.37-24.6 120.69-25.25 122.29-25.25L122.29-25.25Q123.69-25.25 124.94-24.7 126.19-24.15 126.64-22.85L126.64-22.85 126.74-22.55Q126.14-21.2 125.54-19.3 124.94-17.4 124.44-15.33 123.94-13.25 123.64-11.28 123.34-9.3 123.34-7.8L123.34-7.8Q123.34-6.15 123.69-5.53 124.04-4.9 124.54-4.9L124.54-4.9Q125.39-4.9 126.09-6.1L126.09-6.1 126.49-5.9Q126.49-4.2 125.39-2.8 124.29-1.4 122.64-0.58 120.99 0.25 119.34 0.25ZM111.19-6.1L111.19-6.1Q112.49-6.1 114.07-8.43 115.64-10.75 116.79-15.1L116.79-15.1Q116.89-15.55 116.99-15.98 117.09-16.4 117.14-16.8L117.14-16.8Q116.34-18.65 115.47-19.43 114.59-20.2 113.74-20.2L113.74-20.2Q112.49-20.2 111.42-18.88 110.34-17.55 109.67-15.55 108.99-13.55 108.99-11.55L108.99-11.55Q108.99-8.8 109.62-7.45 110.24-6.1 111.19-6.1ZM147.54 0.25L147.54 0.25Q145.79 0.25 144.49-0.9 143.19-2.05 143.19-4.65L143.19-4.65Q143.19-4.9 143.19-5.15 143.19-5.4 143.24-5.65L143.24-5.65Q141.74-2.65 139.87-1.23 137.99 0.2 136.09 0.2L136.09 0.2Q134.34 0.2 132.79-1.03 131.24-2.25 130.29-4.65 129.34-7.05 129.34-10.45L129.34-10.45Q129.34-13.95 130.32-16.7 131.29-19.45 132.89-21.35 134.49-23.25 136.39-24.23 138.29-25.2 140.09-25.2L140.09-25.2Q142.09-25.2 143.69-23.98 145.29-22.75 145.89-20.1L145.89-20.1Q146.04-20.95 146.12-21.65 146.19-22.35 146.19-22.6L146.19-22.6Q146.24-23.95 147.57-24.6 148.89-25.25 150.49-25.25L150.49-25.25Q151.89-25.25 153.14-24.7 154.39-24.15 154.84-22.85L154.84-22.85 154.94-22.55Q154.34-21.2 153.74-19.3 153.14-17.4 152.64-15.33 152.14-13.25 151.84-11.28 151.54-9.3 151.54-7.8L151.54-7.8Q151.54-6.15 151.89-5.53 152.24-4.9 152.74-4.9L152.74-4.9Q153.59-4.9 154.29-6.1L154.29-6.1 154.69-5.9Q154.69-4.2 153.59-2.8 152.49-1.4 150.84-0.58 149.19 0.25 147.54 0.25ZM139.39-6.1L139.39-6.1Q140.69-6.1 142.27-8.43 143.84-10.75 144.99-15.1L144.99-15.1Q145.09-15.55 145.19-15.98 145.29-16.4 145.34-16.8L145.34-16.8Q144.54-18.65 143.67-19.43 142.79-20.2 141.94-20.2L141.94-20.2Q140.69-20.2 139.62-18.88 138.54-17.55 137.87-15.55 137.19-13.55 137.19-11.55L137.19-11.55Q137.19-8.8 137.82-7.45 138.44-6.1 139.39-6.1ZM164.64 0.2L164.64 0.2Q163.04 0.2 161.61-0.53 160.19-1.25 159.31-2.8 158.44-4.35 158.44-6.75L158.44-6.75Q158.44-8.05 158.69-10.15 158.94-12.25 159.36-14.75 159.79-17.25 160.24-19.75L160.24-19.75Q159.24-19.7 158.31-19.55 157.39-19.4 156.49-19.2L156.49-19.2 156.39-19.55Q157.39-20.75 158.49-21.6 159.59-22.45 160.79-23L160.79-23Q161.44-26.3 161.89-28.73 162.34-31.15 162.34-31.6L162.34-31.6Q162.34-32.45 163.66-33 164.99-33.55 166.64-33.55L166.64-33.55Q168.09-33.55 169.36-33 170.64-32.45 171.09-31.15L171.09-31.15Q170.79-30.85 170.24-28.93 169.69-27 169.09-24.25L169.09-24.25Q170.04-24.2 171.04-24.15 172.04-24.1 173.09-24L173.09-24Q173.19-23.7 173.24-23.35 173.29-23 173.29-22.6L173.29-22.6Q173.29-21.85 173.06-20.98 172.84-20.1 172.54-19.4L172.54-19.4Q171.34-19.5 170.29-19.63 169.24-19.75 168.24-19.8L168.24-19.8Q167.84-17.65 167.51-15.5 167.19-13.35 167.01-11.6 166.84-9.85 166.84-8.85L166.84-8.85Q166.84-6.75 167.61-6.05 168.39-5.35 169.49-5.35L169.49-5.35Q170.49-5.35 171.29-5.75 172.09-6.15 172.44-6.7L172.44-6.7 172.94-6.55Q172.64-4.5 171.34-2.98 170.04-1.45 168.24-0.63 166.44 0.2 164.64 0.2ZM186.09 0.35L186.09 0.35Q182.34 0.35 179.89-1.15 177.44-2.65 176.26-5.13 175.09-7.6 175.09-10.4L175.09-10.4Q175.09-13.05 176.06-15.7 177.04-18.35 178.91-20.53 180.79-22.7 183.49-24.03 186.19-25.35 189.69-25.35L189.69-25.35Q193.44-25.35 195.86-23.83 198.29-22.3 199.46-19.8 200.64-17.3 200.64-14.45L200.64-14.45Q200.64-11.85 199.69-9.22 198.74-6.6 196.86-4.42 194.99-2.25 192.29-0.95 189.59 0.35 186.09 0.35ZM187.44-3.9L187.44-3.9Q188.79-3.9 189.69-5.3 190.59-6.7 191.04-8.88 191.49-11.05 191.49-13.3L191.49-13.3Q191.49-15.3 191.11-17.07 190.74-18.85 189.99-19.98 189.24-21.1 188.04-21.1L188.04-21.1Q186.74-21.1 185.81-19.7 184.89-18.3 184.44-16.15 183.99-14 183.99-11.7L183.99-11.7Q183.99-9.7 184.36-7.93 184.74-6.15 185.49-5.03 186.24-3.9 187.44-3.9ZM204.83-10.65L204.83-10.65Q204.53-11.3 204.41-11.93 204.28-12.55 204.28-13.1L204.28-13.1Q204.28-15.05 205.63-16.32 206.98-17.6 209.28-17.6L209.28-17.6Q211.48-17.6 213.66-17.43 215.83-17.25 217.68-17.25L217.68-17.25Q219.08-17.25 220.21-17.43 221.33-17.6 222.03-18.1L222.03-18.1Q222.93-16.45 222.93-15L222.93-15Q222.93-13.3 221.68-12.2 220.43-11.1 217.78-11.1L217.78-11.1Q215.03-11.1 212.93-11.18 210.83-11.25 209.18-11.25L209.18-11.25Q207.83-11.25 206.76-11.15 205.68-11.05 204.83-10.65ZM234.68 0.45L234.68 0.45Q231.58 0.45 229.53-0.4 227.48-1.25 226.48-2.58 225.48-3.9 225.48-5.25L225.48-5.25Q225.48-7.15 227.18-8.63 228.88-10.1 231.78-10.1L231.78-10.1Q231.78-7.55 232.43-6.03 233.08-4.5 234.11-3.85 235.13-3.2 236.08-3.2L236.08-3.2Q237.23-3.2 238.01-3.88 238.78-4.55 238.78-5.55L238.78-5.55Q238.78-6.95 237.33-8 235.88-9.05 233.58-10.35L233.58-10.35Q232.43-11.05 231.08-11.98 229.73-12.9 228.78-14.23 227.83-15.55 227.83-17.4L227.83-17.4Q227.83-19.35 228.96-20.85 230.08-22.35 231.93-23.38 233.78-24.4 235.93-24.93 238.08-25.45 240.13-25.45L240.13-25.45Q243.98-25.45 245.93-23.9 247.88-22.35 247.88-20.6L247.88-20.6Q247.88-19.1 246.38-17.9 244.88-16.7 241.78-16.7L241.78-16.7Q241.83-19.25 240.73-20.43 239.63-21.6 238.38-21.6L238.38-21.6Q237.48-21.6 236.88-21.05 236.28-20.5 236.28-19.45L236.28-19.45Q236.28-18.25 237.06-17.38 237.83-16.5 239.01-15.83 240.18-15.15 241.43-14.55L241.43-14.55Q243.13-13.75 244.63-12.85 246.13-11.95 247.08-10.8 248.03-9.65 248.03-8L248.03-8Q248.03-5.75 246.21-3.83 244.38-1.9 241.33-0.73 238.28 0.45 234.68 0.45ZM258.03 0.2L258.03 0.2Q256.43 0.2 255-0.53 253.58-1.25 252.7-2.8 251.83-4.35 251.83-6.75L251.83-6.75Q251.83-8.05 252.08-10.15 252.33-12.25 252.75-14.75 253.18-17.25 253.63-19.75L253.63-19.75Q252.63-19.7 251.7-19.55 250.78-19.4 249.88-19.2L249.88-19.2 249.78-19.55Q250.78-20.75 251.88-21.6 252.98-22.45 254.18-23L254.18-23Q254.83-26.3 255.28-28.73 255.73-31.15 255.73-31.6L255.73-31.6Q255.73-32.45 257.05-33 258.38-33.55 260.03-33.55L260.03-33.55Q261.48-33.55 262.75-33 264.03-32.45 264.48-31.15L264.48-31.15Q264.18-30.85 263.63-28.93 263.08-27 262.48-24.25L262.48-24.25Q263.43-24.2 264.43-24.15 265.43-24.1 266.48-24L266.48-24Q266.58-23.7 266.63-23.35 266.68-23 266.68-22.6L266.68-22.6Q266.68-21.85 266.45-20.98 266.23-20.1 265.93-19.4L265.93-19.4Q264.73-19.5 263.68-19.63 262.63-19.75 261.63-19.8L261.63-19.8Q261.23-17.65 260.9-15.5 260.58-13.35 260.4-11.6 260.23-9.85 260.23-8.85L260.23-8.85Q260.23-6.75 261-6.05 261.78-5.35 262.88-5.35L262.88-5.35Q263.88-5.35 264.68-5.75 265.48-6.15 265.83-6.7L265.83-6.7 266.33-6.55Q266.03-4.5 264.73-2.98 263.43-1.45 261.63-0.63 259.83 0.2 258.03 0.2ZM279.48 0.35L279.48 0.35Q275.73 0.35 273.28-1.15 270.83-2.65 269.65-5.13 268.48-7.6 268.48-10.4L268.48-10.4Q268.48-13.05 269.45-15.7 270.43-18.35 272.3-20.53 274.18-22.7 276.88-24.03 279.58-25.35 283.08-25.35L283.08-25.35Q286.83-25.35 289.25-23.83 291.68-22.3 292.85-19.8 294.03-17.3 294.03-14.45L294.03-14.45Q294.03-11.85 293.08-9.22 292.13-6.6 290.25-4.42 288.38-2.25 285.68-0.95 282.98 0.35 279.48 0.35ZM280.83-3.9L280.83-3.9Q282.18-3.9 283.08-5.3 283.98-6.7 284.43-8.88 284.88-11.05 284.88-13.3L284.88-13.3Q284.88-15.3 284.5-17.07 284.13-18.85 283.38-19.98 282.63-21.1 281.43-21.1L281.43-21.1Q280.13-21.1 279.2-19.7 278.28-18.3 277.83-16.15 277.38-14 277.38-11.7L277.38-11.7Q277.38-9.7 277.75-7.93 278.13-6.15 278.88-5.03 279.63-3.9 280.83-3.9ZM302.77 0.2L302.77 0.2Q300.97 0.2 299.57-1.28 298.17-2.75 298.17-5.45L298.17-5.45Q298.17-6.75 298.47-8.4 298.77-10.05 299.17-11.78 299.57-13.5 299.87-15.03 300.17-16.55 300.17-17.55L300.17-17.55Q300.17-18.6 299.8-19.23 299.42-19.85 298.82-19.85L298.82-19.85Q297.87-19.85 296.87-18.55L296.87-18.55 296.57-18.75Q296.52-19.55 296.92-20.65 297.32-21.75 298.17-22.78 299.02-23.8 300.35-24.5 301.67-25.2 303.47-25.2L303.47-25.2Q306.12-25.2 307.32-23.68 308.52-22.15 308.52-20L308.52-20Q308.52-19.65 308.5-19.28 308.47-18.9 308.42-18.55L308.42-18.55Q310.22-21.8 312.2-23.53 314.17-25.25 315.87-25.25L315.87-25.25Q317.47-25.25 318.22-24 318.97-22.75 318.97-21L318.97-21Q318.97-19.4 318.35-17.75 317.72-16.1 316.5-15.03 315.27-13.95 313.52-14L313.52-14 313.32-14.1Q313.27-15.4 312.47-16.15 311.67-16.9 310.67-16.9L310.67-16.9Q309.32-16.9 308.15-15.55 306.97-14.2 306.97-11.65L306.97-11.65Q306.97-10.1 307.32-8.3 307.67-6.5 307.67-5.25L307.67-5.25Q307.67-3.75 306.97-2.5 306.27-1.25 305.17-0.53 304.07 0.2 302.77 0.2ZM331.22 0.35L331.22 0.35Q327.57 0.35 325.17-1.13 322.77-2.6 321.57-5.03 320.37-7.45 320.37-10.25L320.37-10.25Q320.37-12.9 321.4-15.58 322.42-18.25 324.4-20.45 326.37-22.65 329.2-24 332.02-25.35 335.57-25.35L335.57-25.35Q339.97-25.35 342-23.38 344.02-21.4 344.02-18.6L344.02-18.6Q344.02-16.2 342.75-14.18 341.47-12.15 339.37-10.93 337.27-9.7 334.77-9.7L334.77-9.7Q333.47-9.7 332.12-10.1 330.77-10.5 329.47-11.35L329.47-11.35Q329.72-8.25 331.27-6.85 332.82-5.45 334.97-5.45L334.97-5.45Q336.47-5.45 337.97-6.03 339.47-6.6 340.75-7.53 342.02-8.45 342.72-9.5L342.72-9.5 343.07-9.25Q343.07-6.65 342-4.83 340.92-3 339.17-1.85 337.42-0.7 335.35-0.18 333.27 0.35 331.22 0.35ZM332.37-13.15L332.37-13.15Q333.97-13.15 334.97-14.08 335.97-15 336.47-16.25 336.97-17.5 336.97-18.45L336.97-18.45Q336.97-19.6 336.32-20.38 335.67-21.15 334.52-21.15L334.52-21.15Q333.62-21.15 332.55-20.5 331.47-19.85 330.62-18.28 329.77-16.7 329.52-13.9L329.52-13.9Q331.12-13.15 332.37-13.15Z" opacity="1" transform="matrix(1,0,0,1,0,0)" fill="white" class="wordmark-text-0" id="SvgjsPath3395"></path></svg></g></svg></g></svg></g></svg></g><g><svg viewBox="0 0 114.37525012790364 111.06765720298115" height="111.06765720298115" width="114.37525012790364"><g><svg xmlns="http://www.w3.org/2000/svg" xmlns:xlink="http://www.w3.org/1999/xlink" version="1.1" x="0" y="0" viewBox="6.343650721689464 3.459300458083863 89.59874006063401 87.00765362912796" enable-background="new 0 0 100 100" xml:space="preserve" height="111.06765720298115" width="114.37525012790364" class="icon-icon-0" data-fill-palette-color="accent" id="SvgjsSvg3394"><g fill="black"><path d="M90.369 31.38C83.708 22.012 69.552 23.886 69.552 23.886 74.756 31.172 71.426 36.168 71.426 36.168 67.054 36.585 61.017 32.004 61.017 32.004 62.058 37.209 57.062 40.956 57.062 40.956 57.062 37.833 49.775 33.462 49.775 33.462 48.109 38.042 38.741 40.124 38.741 40.124 37.908 34.919 39.366 32.005 39.366 32.005 35.827 35.128 28.124 34.504 28.124 34.504 28.957 26.385 33.537 23.678 33.537 23.678-8.515 21.596-1.645 94.459 53.105 90.295 107.856 86.132 97.031 40.749 90.369 31.38" fill="black"></path><path d="M34.37 29.507C39.158 30.826 44.085 26.87 44.085 26.87 41.864 29.507 42.906 34.017 42.906 34.017 46.722 33.809 48.457 28.604 48.457 28.604 52.274 28.674 56.715 34.78 56.715 34.78 59.769 31.935 59.005 28.049 59.005 28.049 63.585 31.588 68.512 30.686 68.512 30.686 68.304 26.383 63.864 24.094 63.864 24.094 69.276 20.347 67.403 17.294 67.403 17.294 64.627 21.596 58.728 21.943 58.728 21.943 61.711 18.82 59.838 12.436 59.838 12.436 58.727 15.003 54.009 22.428 53.94 19.722A4 4 0 0 1 53.957 19.294C54.251 15.957 58.103 5.219 58.103 5.219 57.548 3.415 55.328 3.137 54.148 3.761S50.33 19.445 50.33 19.445C46.721 18.474 46.93 11.325 46.93 11.325 44.016 12.991 44.085 20.763 44.085 20.763 37.354 20.555 34.925 15.766 34.925 15.766 34.717 23.052 40.962 23.885 40.962 23.885 36.937 24.025 34.37 29.507 34.37 29.507" fill="black"></path></g></svg></g></svg></g></svg></g><defs><mask></mask></defs></svg><rect width="395.52" height="84.49428152279293" fill="black" stroke="none" visibility="hidden"></rect></g></mask><linearGradient x1="0" x2="1" y1="0.5" y2="0.5" id="29d07f88-85c5-47aa-8717-6bdbe1f70f9d"><stop stop-color="#ffa62e" offset="0"></stop><stop stop-color="#f71b3d" offset="1"></stop></linearGradient><rect width="395.52" height="84.49428152279293" fill="url(#29d07f88-85c5-47aa-8717-6bdbe1f70f9d)" mask="url(#1c143d7c-00e1-4668-92f3-fa03656c927a)" data-fill-palette-color="primary"></rect></svg><rect width="395.52" height="84.49428152279293" fill="none" stroke="none" visibility="hidden"></rect></g></svg></g></svg>